<?xml version="1.0" standalone="no"?>
<!DOCTYPE svg PUBLIC "-//W3C//DTD SVG 20010904//EN"
 "http://www.w3.org/TR/2001/REC-SVG-20010904/DTD/svg10.dtd">
<svg version="1.0" xmlns="http://www.w3.org/2000/svg"
 width="225.000000pt" height="225.000000pt" viewBox="0 0 225.000000 225.000000"
 preserveAspectRatio="xMidYMid meet">

<g transform="translate(0.000000,225.000000) scale(0.100000,-0.100000)"
fill="#000000" stroke="none">
<path d="M955 1855 c-250 -55 -454 -240 -542 -490 -26 -74 -28 -92 -28 -230 0
-143 1 -154 31 -238 18 -48 46 -111 64 -141 39 -63 129 -168 126 -145 -1 9
-19 36 -40 60 -53 62 -119 176 -110 190 4 7 3 9 -3 6 -13 -8 -27 39 -17 55 4
7 3 8 -5 4 -9 -6 -10 0 -6 21 5 22 4 25 -5 13 -8 -12 -9 -6 -5 25 4 30 3 35
-4 20 -7 -14 -9 -1 -6 45 3 36 7 102 10 146 7 102 50 236 98 303 24 33 33 53
25 57 -7 5 -8 3 -3 -6 5 -8 4 -11 -2 -7 -14 9 -85 -129 -108 -208 -10 -33 -21
-112 -26 -175 l-7 -115 3 120 c4 136 21 201 79 311 37 69 82 135 70 102 -10
-28 11 -21 24 8 7 15 17 22 24 18 6 -4 8 -3 5 3 -4 6 0 16 8 23 8 7 15 9 15 5
0 -5 9 0 20 10 14 13 17 22 10 29 -6 6 -4 16 7 28 16 18 35 25 30 11 -1 -5 1
-9 6 -10 16 -6 19 -2 8 11 -9 10 -6 17 13 30 34 22 44 20 15 -2 -14 -12 -18
-21 -11 -26 6 -3 16 3 22 14 6 12 16 18 23 13 7 -4 7 0 -2 10 -15 18 -2 24 16
6 7 -7 15 -6 26 6 9 8 20 15 24 14 4 -1 21 1 36 6 22 6 26 10 16 19 -8 8 -13
8 -16 -2 -3 -6 -9 -10 -14 -7 -4 3 -22 -1 -40 -10 -17 -9 -33 -15 -35 -12 -2
2 18 14 45 26 40 19 52 21 70 11 14 -7 27 -8 34 -2 43 33 348 33 368 0 4 -7
11 -9 15 -6 4 4 16 2 28 -4 11 -7 25 -11 29 -10 11 3 120 -57 133 -74 6 -8 14
-14 18 -14 6 0 24 -16 95 -83 125 -120 199 -326 187 -522 -5 -81 -3 -96 6 -80
19 30 15 217 -5 295 -38 144 -132 291 -247 385 -154 126 -380 181 -577 141
-97 -19 -113 -19 -53 0 25 8 95 18 155 21 91 4 125 2 199 -16 342 -82 576
-401 552 -753 -6 -82 -5 -98 7 -98 22 0 27 23 27 134 0 127 -24 228 -82 346
-34 69 -59 102 -137 181 -79 79 -111 103 -181 137 -118 58 -219 82 -344 81
-56 0 -128 -7 -161 -14z m-311 -184 c3 -5 -1 -14 -9 -21 -8 -7 -15 -9 -15 -4
0 4 -17 -8 -37 -27 -38 -35 -29 -16 16 34 26 28 36 33 45 18z"/>
<path d="M1045 1744 c-11 -2 -45 -9 -75 -15 -81 -16 -187 -68 -256 -126 -168
-141 -248 -379 -200 -596 18 -79 24 -91 43 -79 7 5 5 28 -8 77 -65 252 57 527
289 648 40 21 80 36 88 33 7 -3 24 -1 36 5 21 9 21 9 -4 4 -48 -9 -39 13 10
23 166 37 328 8 462 -81 53 -35 140 -117 140 -131 0 -6 -25 14 -55 44 -30 30
-55 51 -55 47 0 -4 27 -35 61 -68 34 -35 75 -91 94 -128 19 -36 34 -62 35 -58
0 4 -12 30 -26 58 -14 28 -23 53 -20 56 10 11 66 -121 82 -196 18 -82 15 -207
-7 -282 -11 -34 -14 -38 -21 -23 -5 13 -6 10 -3 -11 3 -17 -2 -41 -11 -55
l-15 -25 7 25 c7 29 2 26 -16 -9 -9 -18 -9 -22 0 -16 8 5 11 3 8 -6 -3 -8 -10
-13 -16 -12 -7 2 -9 -4 -5 -14 4 -10 2 -14 -4 -10 -5 3 -20 -8 -33 -26 -14
-18 -17 -26 -7 -18 9 7 17 9 17 3 0 -11 -31 -39 -37 -34 -3 2 -7 1 -10 -1 -3
-3 3 -4 13 -3 42 6 129 156 154 265 17 72 14 202 -5 276 -44 172 -163 320
-317 394 -112 54 -250 81 -333 65z m555 -276 c0 -6 -7 -5 -15 2 -8 7 -15 17
-15 22 0 6 7 5 15 -2 8 -7 15 -17 15 -22z m-9 -671 c-10 -9 -11 -8 -5 6 3 10
9 15 12 12 3 -3 0 -11 -7 -18z"/>
<path d="M1078 1713 c6 -2 18 -2 25 0 6 3 1 5 -13 5 -14 0 -19 -2 -12 -5z"/>
<path d="M1135 1711 c11 -4 45 -11 75 -14 30 -3 46 -2 35 2 -27 11 -135 23
-110 12z"/>
<path d="M1008 1703 c12 -2 30 -2 40 0 9 3 -1 5 -23 4 -22 0 -30 -2 -17 -4z"/>
<path d="M1293 1684 c9 -9 107 -54 107 -49 0 3 -22 16 -50 30 -48 24 -70 32
-57 19z"/>
<path d="M1153 1583 c9 -2 25 -2 35 0 9 3 1 5 -18 5 -19 0 -27 -2 -17 -5z"/>
<path d="M832 1535 c-73 -53 -139 -147 -172 -246 -19 -54 -21 -80 -18 -165 4
-91 8 -110 40 -176 144 -304 535 -373 768 -135 176 179 172 470 -8 646 -52 50
-151 111 -183 111 -7 0 17 -14 52 -32 213 -106 303 -362 203 -574 -35 -75
-130 -170 -209 -209 -56 -28 -67 -30 -175 -30 -103 0 -121 3 -170 26 -115 55
-192 142 -230 258 -54 170 13 368 155 458 24 15 44 33 44 38 0 6 -8 25 -17 43
l-18 33 -62 -46z"/>
<path d="M1218 1573 c7 -3 16 -2 19 1 4 3 -2 6 -13 5 -11 0 -14 -3 -6 -6z"/>
<path d="M1661 1284 c0 -11 3 -14 6 -6 3 7 2 16 -1 19 -3 4 -6 -2 -5 -13z"/>
<path d="M1672 1235 c0 -16 2 -22 5 -12 2 9 2 23 0 30 -3 6 -5 -1 -5 -18z"/>
<path d="M1683 1135 c0 -33 2 -45 4 -27 2 18 2 45 0 60 -2 15 -4 0 -4 -33z"/>
<path d="M1672 1030 c0 -14 2 -19 5 -12 2 6 2 18 0 25 -3 6 -5 1 -5 -13z"/>
<path d="M640 775 c6 -8 9 -18 7 -22 -3 -5 3 -9 13 -10 17 -2 17 0 -2 23 -23
25 -39 34 -18 9z"/>
<path d="M1699 723 c-13 -16 -12 -17 4 -4 9 7 17 15 17 17 0 8 -8 3 -21 -13z"/>
<path d="M1494 708 l-19 -23 23 19 c21 18 27 26 19 26 -2 0 -12 -10 -23 -22z"/>
<path d="M1439 663 c-13 -16 -12 -17 4 -4 16 13 21 21 13 21 -2 0 -10 -8 -17
-17z"/>
<path d="M770 656 c0 -3 9 -10 20 -16 11 -6 20 -8 20 -6 0 3 -9 10 -20 16 -11
6 -20 8 -20 6z"/>
<path d="M1624 629 c-44 -47 -145 -116 -216 -148 -111 -50 -193 -65 -331 -58
-135 6 -237 33 -335 88 -30 17 -51 25 -47 19 12 -19 142 -79 222 -102 60 -17
104 -22 188 -22 168 1 292 41 430 139 54 39 136 115 124 115 -3 0 -18 -14 -35
-31z"/>
<path d="M1394 634 c-18 -14 -18 -15 4 -4 12 6 22 13 22 15 0 8 -5 6 -26 -11z"/>
<path d="M880 591 c0 -6 4 -13 10 -16 6 -3 7 1 4 9 -7 18 -14 21 -14 7z"/>
<path d="M655 560 c10 -11 20 -20 23 -20 3 0 -3 9 -13 20 -10 11 -20 20 -23
20 -3 0 3 -9 13 -20z"/>
<path d="M988 563 c7 -3 16 -2 19 1 4 3 -2 6 -13 5 -11 0 -14 -3 -6 -6z"/>
<path d="M1208 563 c7 -3 16 -2 19 1 4 3 -2 6 -13 5 -11 0 -14 -3 -6 -6z"/>
<path d="M1068 553 c23 -2 61 -2 85 0 23 2 4 4 -43 4 -47 0 -66 -2 -42 -4z"/>
</g>
</svg>
