<?xml version="1.0" standalone="no"?>
<!DOCTYPE svg PUBLIC "-//W3C//DTD SVG 20010904//EN"
 "http://www.w3.org/TR/2001/REC-SVG-20010904/DTD/svg10.dtd">
<svg version="1.0" xmlns="http://www.w3.org/2000/svg"
 width="274.000000pt" height="184.000000pt" viewBox="0 0 274.000000 184.000000"
 preserveAspectRatio="xMidYMid meet">

<g transform="translate(0.000000,184.000000) scale(0.100000,-0.100000)"
fill="#000000" stroke="none">
<path d="M1460 1649 c-11 -24 -20 -40 -20 -35 0 12 -39 -24 -53 -49 -9 -17 -8
-18 5 -7 13 10 15 9 14 -10 -1 -14 -10 -27 -23 -33 -13 -5 -23 -17 -23 -26 0
-20 -15 -33 -72 -62 l-44 -22 -17 20 c-14 18 -16 18 -17 3 0 -10 -5 -18 -11
-18 -7 0 -8 -18 -5 -49 4 -37 2 -50 -9 -55 -22 -8 -26 7 -15 65 6 29 8 60 5
70 -6 18 -34 34 -43 24 -3 -3 0 -5 6 -5 7 0 12 -5 12 -11 0 -5 -4 -7 -10 -4
-5 3 -10 -3 -10 -14 0 -10 -12 -29 -27 -40 -16 -11 -22 -21 -14 -21 8 0 20 8
27 18 10 12 13 13 14 3 0 -17 -38 -51 -57 -51 -7 0 -13 -4 -13 -9 0 -5 -8 -11
-17 -14 -10 -4 -33 -19 -52 -34 -33 -26 -34 -27 -29 -6 5 19 4 20 -13 10 -10
-6 -23 -23 -28 -37 -10 -28 -72 -100 -86 -100 -5 0 -22 -12 -37 -27 -22 -21
-28 -23 -28 -10 0 9 22 31 50 49 46 30 81 80 66 95 -3 3 -6 -1 -6 -9 0 -18
-69 -88 -86 -88 -7 0 -22 -12 -33 -27 -25 -30 -20 -58 15 -88 29 -25 18 -53
-14 -36 -31 16 -49 13 -26 -5 18 -14 18 -15 -6 -8 -13 4 -30 12 -37 18 -32 29
-41 34 -46 29 -10 -9 6 42 16 55 6 8 30 23 53 33 24 12 46 31 53 47 l11 27
-22 -26 c-27 -32 -84 -62 -99 -53 -20 12 -50 -28 -47 -63 2 -36 26 -59 68 -65
13 -1 26 -9 28 -17 3 -9 0 -12 -10 -9 -8 4 -21 3 -28 -2 -10 -6 -8 -11 9 -21
31 -20 27 -24 -29 -26 -55 -1 -58 2 -33 29 9 10 12 18 6 18 -5 0 -18 6 -28 14
-17 12 -17 16 -6 30 12 14 12 16 -3 10 -16 -6 -20 -15 -17 -46 1 -9 -3 -19 -9
-23 -5 -3 -10 -15 -10 -26 0 -10 -6 -19 -12 -20 -7 0 -3 -4 10 -10 13 -5 20
-13 17 -19 -4 -6 -1 -9 6 -8 6 2 13 -2 16 -9 2 -7 -8 -13 -24 -16 -27 -4 -27
-4 5 -6 24 -1 32 3 32 17 1 16 1 16 11 -1 13 -23 -13 -57 -44 -57 -11 0 -18
-3 -14 -6 3 -4 22 -3 42 0 32 6 35 10 36 44 l2 37 7 -40 c4 -22 8 -32 9 -21 0
11 6 16 15 13 10 -4 12 1 9 16 -3 13 -1 18 4 12 4 -5 14 -10 21 -11 6 -1 17
-2 22 -2 12 -2 13 -39 1 -46 -22 -14 -18 -44 10 -60 25 -15 28 -15 23 -1 -3 8
-1 15 4 15 14 0 24 -33 17 -56 -4 -10 1 -7 10 9 9 15 13 33 9 39 -5 7 1 9 19
6 15 -3 24 -2 22 2 -3 5 2 11 11 14 19 7 66 -23 57 -38 -3 -6 -3 -8 2 -4 4 4
14 0 22 -10 9 -10 12 -11 7 -2 -4 8 -14 23 -23 34 -9 10 -16 21 -16 25 0 3 -6
4 -15 3 -12 -3 -12 -1 -3 9 10 10 19 9 47 -6 20 -11 38 -16 42 -12 6 6 -3 10
-43 23 -21 6 -15 24 8 24 11 0 18 4 15 8 -2 4 0 14 5 22 8 13 10 13 19 0 8
-12 10 -10 10 11 0 18 8 29 27 38 l28 13 -20 -23 -20 -22 24 13 c16 8 43 10
83 6 57 -7 59 -6 49 12 -12 22 -1 30 36 27 12 -1 24 4 27 12 3 7 -2 13 -12 14
-9 1 3 5 27 10 25 5 49 13 54 18 5 5 -9 5 -33 -1 -40 -10 -45 -9 -62 11 -10
13 -18 29 -18 37 0 14 -8 17 -43 17 -13 0 -16 5 -11 21 4 11 7 21 8 21 0 0 12
9 25 20 l25 20 -23 -32 c-26 -38 -18 -43 18 -10 22 19 23 19 8 1 -28 -34 -19
-40 13 -9 16 15 28 31 25 34 -2 4 6 7 17 7 17 0 14 -6 -17 -34 -36 -33 -43
-60 -8 -30 10 8 34 18 53 21 32 6 30 4 -20 -23 l-55 -29 50 5 c37 4 46 3 35
-5 -8 -6 -25 -11 -37 -11 -12 0 -24 -4 -28 -9 -3 -6 4 -8 16 -6 42 8 119 37
125 46 11 19 25 -4 19 -32 -7 -32 10 -40 34 -16 8 6 6 0 -4 -15 -13 -22 -21
-26 -35 -18 -13 7 -21 5 -30 -5 -17 -20 -3 -40 17 -23 15 12 15 11 2 -9 -14
-23 -49 -32 -49 -13 0 5 -7 7 -15 4 -8 -4 -15 -15 -15 -26 0 -16 5 -19 22 -15
20 6 20 5 5 -10 -13 -13 -19 -14 -31 -4 -19 16 -46 7 -46 -14 0 -15 11 -19 39
-15 13 1 13 -1 2 -14 -17 -20 -47 -21 -59 0 -7 13 -11 13 -31 -4 -22 -17 -23
-19 -6 -36 10 -9 24 -15 31 -12 8 3 14 1 14 -4 0 -5 -10 -12 -22 -16 -16 -5
-26 -1 -38 14 -16 20 -16 20 -33 -1 -21 -26 -21 -31 -2 -47 12 -10 21 -10 41
-1 20 9 25 9 22 -1 -8 -24 -36 -33 -67 -21 -34 13 -41 9 -41 -24 0 -19 5 -23
28 -23 15 0 33 5 40 12 9 9 12 8 12 -5 0 -25 -42 -42 -69 -28 -19 11 -21 9
-21 -19 0 -39 33 -55 68 -34 20 13 22 13 22 -6 0 -27 -40 -46 -68 -31 -15 8
-23 7 -31 -3 -6 -7 -7 -16 -3 -20 4 -4 3 -7 -3 -6 -20 4 -36 0 -31 -9 4 -5 -4
-7 -16 -3 -17 4 -20 2 -15 -11 4 -11 2 -14 -9 -10 -7 3 -14 1 -14 -5 0 -6 6
-13 13 -15 8 -4 7 -6 -4 -6 -8 -1 -21 5 -28 12 -10 10 -11 9 -6 -6 9 -22 -3
-22 -27 0 -18 16 -18 16 -12 0 3 -10 1 -17 -5 -17 -6 0 -11 4 -11 10 0 5 -10
15 -22 21 -21 11 -22 11 -9 -5 16 -19 6 -35 -11 -18 -17 17 -28 15 -28 -5 0
-14 2 -15 9 -5 6 10 10 10 21 -2 10 -13 10 -17 -1 -20 -30 -9 -88 -2 -93 11
-3 8 -1 11 4 8 15 -9 47 3 47 19 0 7 -15 20 -33 28 -19 9 -31 11 -28 7 3 -5 0
-9 -5 -9 -6 0 -11 4 -11 9 0 6 -9 8 -20 6 -13 -2 -20 2 -20 11 0 8 -5 12 -10
9 -6 -3 -10 -1 -10 4 0 6 -5 11 -11 11 -5 0 -8 -4 -4 -9 3 -5 1 -12 -5 -16 -5
-3 -10 0 -10 7 0 9 -3 9 -10 -2 -8 -13 -11 -12 -25 5 -10 14 -13 15 -9 4 4
-12 -1 -16 -17 -15 -12 0 -25 8 -27 16 -5 13 -3 13 12 1 14 -12 16 -12 10 3
-8 20 -18 20 -34 1 -9 -11 -8 -20 6 -45 16 -26 23 -30 49 -24 16 3 38 6 48 7
9 1 17 5 17 9 0 4 7 5 15 2 20 -8 19 -19 -2 -21 -43 -3 -63 -8 -63 -15 0 -4
-6 -5 -14 -2 -7 3 -20 -2 -29 -10 -13 -14 -16 -14 -27 -1 -10 12 -10 15 0 15
8 0 11 3 8 6 -9 8 -45 -13 -51 -29 -3 -9 2 -13 17 -13 14 1 22 -6 24 -21 2
-13 7 -23 12 -23 17 0 40 13 40 22 0 6 -6 5 -15 -2 -12 -10 -15 -10 -15 3 0 8
8 17 18 21 9 3 22 8 28 11 7 4 10 -3 7 -20 -4 -20 -1 -25 16 -25 23 0 42 -31
23 -38 -7 -2 -10 -8 -6 -13 3 -5 3 -9 -1 -9 -3 0 -10 10 -15 22 l-9 23 0 -22
c-1 -12 9 -29 21 -37 30 -21 41 -20 26 3 -10 17 -7 24 25 56 26 26 47 37 72
39 19 2 32 -1 29 -5 -3 -5 -15 -9 -27 -9 -20 -1 -20 -2 -4 -11 9 -6 26 -8 36
-4 11 3 22 1 26 -5 4 -6 13 -9 21 -6 8 3 13 0 11 -7 -1 -7 3 -11 10 -10 8 2
10 -4 6 -15 -3 -9 -2 -14 2 -9 5 4 16 0 26 -9 15 -13 16 -21 7 -38 -11 -20
-10 -20 13 -4 20 13 23 23 21 54 -4 41 -17 57 -43 49 -8 -3 -24 2 -35 11 -18
15 -18 15 4 4 18 -9 22 -8 22 5 0 18 54 21 95 5 23 -9 30 -6 58 22 18 18 41
38 51 43 16 9 17 14 7 33 -8 14 -8 22 -1 22 5 0 10 -4 10 -8 0 -14 60 -12 60
1 1 7 10 1 20 -12 19 -22 19 -24 3 -37 -10 -7 -27 -14 -37 -14 -16 0 -13 -5
14 -25 46 -34 107 -33 79 2 -15 17 2 17 26 0 17 -13 16 -15 -13 -28 -31 -14
-31 -14 -9 -26 12 -7 30 -12 40 -13 19 0 50 24 41 33 -3 2 4 7 16 10 24 6 26
-6 4 -28 -15 -15 -10 -16 59 -13 48 2 73 6 67 12 -6 6 -10 14 -10 19 0 5 9 -2
21 -17 11 -14 30 -26 42 -26 16 0 18 3 9 12 -7 7 -12 16 -12 21 0 5 8 -1 18
-13 l18 -22 54 27 c30 15 60 34 66 43 11 15 54 9 54 -8 0 -7 -30 -23 -39 -20
-9 4 -18 -24 -13 -42 5 -19 6 -19 19 5 12 23 19 26 58 25 25 -1 45 -6 45 -11
0 -4 5 -5 11 -1 7 4 10 1 7 -7 -3 -8 -11 -13 -17 -12 -13 3 -15 -53 -2 -61 5
-3 11 7 14 23 4 18 14 32 28 36 12 4 40 25 63 46 22 22 50 39 62 39 12 0 33 9
47 20 14 11 39 23 56 26 17 4 34 10 36 14 3 5 -4 6 -15 3 -11 -3 -20 -1 -20 5
0 16 48 20 75 6 14 -7 25 -11 25 -8 0 14 -22 44 -33 44 -7 0 -6 -4 3 -10 9 -6
10 -10 3 -10 -7 0 -17 8 -22 17 -8 14 -10 15 -11 3 0 -13 -1 -13 -10 0 -8 13
-10 12 -10 -4 0 -11 -3 -16 -7 -13 -3 4 -12 2 -18 -3 -9 -7 -16 -6 -25 5 -11
13 -10 23 5 54 19 44 13 65 -16 56 -11 -4 -18 -3 -17 2 2 4 -2 10 -7 11 -6 2
-17 9 -25 15 -8 6 -4 -1 9 -16 16 -18 31 -25 43 -21 10 3 18 1 18 -5 0 -5 -9
-13 -20 -16 -11 -4 -18 -11 -15 -16 4 -5 2 -9 -2 -9 -5 0 -10 -9 -11 -20 -4
-44 -6 -50 -15 -50 -5 0 -3 -7 4 -17 13 -15 12 -15 -9 -4 -17 9 -20 16 -13 29
15 28 20 82 8 82 -5 0 -8 3 -4 6 9 9 -36 52 -50 46 -7 -2 -13 2 -13 9 0 10 -3
10 -12 1 -22 -22 -30 -13 -26 28 2 22 0 40 -4 40 -5 0 -8 -21 -8 -46 0 -37 -3
-45 -15 -40 -9 3 -15 0 -15 -9 0 -8 -7 -15 -16 -15 -8 0 -12 -4 -9 -10 3 -5
-3 -10 -14 -10 -12 0 -20 -3 -19 -7 3 -16 -15 -43 -28 -43 -8 0 -11 -6 -7 -17
5 -12 2 -15 -9 -10 -11 4 -18 -1 -22 -15 -4 -17 -8 -19 -19 -9 -12 9 -16 7
-20 -10 -5 -19 -8 -20 -22 -9 -9 7 -15 9 -14 4 7 -38 -26 -48 -41 -11 -8 21
-9 21 -9 -5 -1 -32 -20 -38 -28 -8 -7 25 -23 16 -23 -12 0 -17 -3 -18 -14 -8
-8 6 -17 21 -19 33 -4 22 -4 22 -6 0 -1 -30 -29 -30 -41 -1 -5 13 -9 16 -9 8
-1 -12 -4 -12 -17 2 -19 18 -7 51 26 68 17 9 19 8 13 -7 -6 -17 -5 -17 13 -2
10 9 26 20 34 24 12 6 13 5 3 -6 -7 -7 -13 -20 -12 -29 0 -10 2 -11 6 -2 2 7
13 17 24 23 18 9 19 7 13 -18 l-6 -28 21 30 21 30 1 -30 c0 -29 0 -30 10 -6 7
17 13 21 20 14 8 -8 18 -7 37 3 14 7 29 11 33 9 4 -3 10 2 13 11 4 9 9 14 12
11 11 -10 33 20 31 42 -1 19 -17 31 -17 13 0 -5 -11 -15 -25 -22 -14 -7 -23
-15 -20 -18 2 -3 16 3 31 13 17 11 25 13 22 4 -7 -21 -75 -51 -105 -47 l-28 4
30 9 c16 4 38 18 47 31 26 32 86 66 94 52 5 -7 2 -8 -6 -3 -9 6 -11 4 -5 -5 5
-9 4 -11 -3 -6 -8 5 -10 1 -5 -10 6 -16 7 -16 18 0 7 9 17 16 24 16 6 0 11 7
11 15 0 8 4 15 10 15 5 0 14 10 20 23 8 16 3 13 -19 -10 -17 -18 -33 -33 -35
-33 -10 0 2 52 13 59 6 4 10 14 8 22 -2 8 -2 11 0 6 7 -11 23 2 23 19 0 8 -4
13 -8 10 -9 -5 -12 29 -6 63 5 23 6 23 20 5 12 -17 13 -17 8 -1 -7 20 14 24
22 3 3 -8 6 -32 7 -54 1 -22 5 -38 8 -36 3 2 11 -8 17 -21 30 -65 60 41 38
131 -7 28 -8 28 -22 10 -8 -11 -14 -15 -14 -9 0 19 12 43 21 43 13 0 37 -53
32 -70 -2 -8 3 -3 11 11 12 21 13 34 5 63 -10 37 -11 37 -30 20 -40 -36 -4 40
47 100 23 27 31 43 24 51 -7 8 -5 12 5 12 8 0 12 -4 9 -9 -9 -14 7 -9 37 13
16 11 33 17 39 14 13 -8 13 -52 0 -60 -5 -3 -10 3 -10 15 0 15 -5 20 -17 18
-10 -2 -16 -11 -14 -19 2 -8 3 -24 3 -37 l1 -23 26 24 c14 13 34 27 43 30 18
6 14 46 -6 60 -16 11 13 27 49 27 17 0 40 3 51 6 16 4 23 0 27 -15 3 -12 1
-24 -4 -27 -16 -10 -10 -24 11 -24 14 0 20 7 20 24 0 13 -6 27 -12 29 -7 3 -3
6 9 6 47 2 74 -31 38 -45 -14 -6 -13 -8 2 -19 15 -11 21 -11 35 2 10 9 15 20
12 25 -4 6 3 5 16 -2 12 -6 29 -9 37 -6 15 6 11 20 -8 22 -5 1 -12 2 -16 3 -4
0 1 7 11 14 16 12 14 13 -20 11 -20 -2 -43 1 -50 7 -7 6 -17 9 -21 6 -4 -3
-19 0 -33 6 -31 13 -80 17 -80 7 0 -4 -9 -10 -21 -13 -16 -4 -18 -3 -8 9 9 11
6 16 -16 24 -33 13 -38 13 -30 0 3 -5 15 -10 27 -10 17 0 18 -3 8 -15 -9 -11
-17 -12 -30 -5 -23 12 -30 13 -30 1 0 -5 10 -12 23 -14 12 -3 0 -4 -26 -3 -38
2 -50 -2 -58 -16 -5 -10 -14 -18 -20 -18 -6 0 -8 4 -4 9 3 5 1 12 -4 15 -5 3
-12 -9 -15 -27 -4 -22 -16 -39 -36 -50 -26 -16 -36 -30 -27 -40 1 -2 -10 -18
-26 -36 -15 -18 -25 -36 -22 -41 2 -4 -5 -16 -18 -26 -12 -10 -17 -12 -10 -5
8 10 6 21 -9 47 -21 36 -32 45 -22 19 4 -8 0 -23 -7 -31 -8 -9 -14 -22 -15
-28 0 -6 -2 -17 -2 -24 -1 -7 -7 -10 -12 -7 -7 4 -9 -2 -4 -19 4 -16 1 -33 -7
-43 -8 -9 -9 -14 -3 -10 8 4 11 -1 10 -17 0 -15 -6 -22 -14 -18 -10 3 -13 -4
-12 -29 3 -50 1 -59 -11 -59 -8 0 -7 6 2 18 13 15 12 16 -3 3 -10 -7 -16 -17
-13 -21 3 -4 -1 -13 -9 -19 -11 -9 -15 -8 -20 5 -5 13 -9 14 -20 5 -10 -8 -16
-9 -21 -1 -8 13 2 30 19 30 22 0 38 27 39 64 1 31 2 33 14 18 13 -15 13 -15 8
5 -3 12 -1 24 5 28 5 3 10 19 10 35 0 15 6 30 14 33 8 3 12 14 10 25 -3 10 1
24 9 31 8 6 13 20 10 30 -2 9 2 23 10 30 8 6 13 21 10 31 -3 12 0 20 6 20 7 0
17 13 24 28 7 15 18 34 25 42 7 8 20 24 28 35 9 11 13 14 9 8 -3 -7 -4 -13 -1
-13 3 0 12 14 21 30 9 17 20 30 26 30 5 0 21 12 35 28 14 15 22 20 18 12 -7
-14 32 13 46 32 3 4 14 7 25 6 11 -1 31 2 45 7 23 7 24 7 10 -11 -12 -15 -10
-15 13 3 21 17 36 20 70 16 23 -4 44 -9 47 -13 6 -8 38 -22 62 -26 46 -9 148
-87 148 -113 0 -6 7 -11 16 -11 9 0 18 -9 21 -20 3 -11 12 -20 19 -20 8 0 14
-9 14 -20 0 -11 7 -23 15 -26 8 -4 15 -14 15 -24 0 -9 9 -25 20 -35 11 -10 17
-21 15 -25 -3 -4 2 -11 11 -14 10 -4 14 -14 11 -26 -3 -13 0 -20 9 -20 15 0
16 -1 18 -44 1 -16 8 -32 15 -34 9 -3 11 0 6 8 -5 8 -4 11 3 6 6 -3 9 -20 7
-36 -3 -21 0 -30 10 -30 21 0 19 -18 -2 -22 -21 -4 -53 25 -53 48 0 8 -4 13
-8 10 -5 -3 -21 17 -35 44 -15 28 -24 50 -20 50 4 0 -2 7 -14 15 -13 9 -20 22
-17 30 4 8 1 15 -5 15 -16 0 -51 32 -45 41 2 5 -7 16 -21 25 -14 9 -25 25 -25
35 0 11 -4 19 -10 19 -5 0 -6 -8 -3 -17 5 -12 2 -15 -10 -10 -9 3 -30 0 -47
-7 -26 -10 -29 -15 -17 -24 18 -15 50 -4 43 14 -8 21 21 5 37 -20 15 -22 14
-22 -16 -18 l-30 5 33 -47 c21 -28 40 -45 49 -43 9 2 15 9 14 15 -2 7 2 12 7
12 6 0 10 -5 10 -11 0 -5 4 -8 8 -5 4 2 8 -3 8 -13 0 -13 -7 -16 -28 -13 -27
4 -28 4 -15 -24 28 -65 51 -94 75 -94 30 0 24 22 -9 31 -13 4 -18 7 -11 8 21
2 13 31 -8 31 -23 0 -27 15 -5 23 9 4 24 -11 45 -47 36 -64 37 -70 8 -64 -22
4 -23 1 -23 -48 0 -37 6 -60 21 -81 21 -29 38 -77 24 -68 -4 2 -24 -11 -44
-29 -19 -19 -52 -40 -71 -46 -19 -6 -33 -15 -30 -20 3 -5 -11 -4 -31 1 -25 8
-39 7 -50 -2 -19 -15 -18 -33 1 -25 18 7 20 -5 3 -22 -14 -14 -32 -16 -24 -3
4 5 2 21 -4 36 -9 23 -8 26 4 22 25 -10 27 9 5 29 -20 18 -21 18 -35 0 -7 -10
-11 -23 -8 -28 3 -5 2 -7 -3 -6 -9 3 -13 -5 -13 -24 0 -9 3 -9 12 0 17 17 33
15 18 -3 -7 -8 -19 -15 -26 -15 -8 0 -14 -10 -14 -22 1 -21 2 -21 11 -5 14 24
28 21 41 -10 9 -23 12 -25 15 -10 4 14 11 17 30 12 16 -4 22 -2 18 5 -4 6 11
10 40 10 26 0 44 4 40 9 -3 5 5 13 17 17 13 4 24 2 26 -5 5 -15 33 -14 30 2
-3 11 5 13 67 16 26 1 7 19 -25 24 -14 2 -24 7 -22 10 1 4 2 11 2 15 0 5 23
19 51 32 28 13 55 32 60 42 5 10 19 18 29 18 16 0 20 7 20 33 0 18 -4 37 -9
43 -17 17 -20 62 -5 75 16 13 19 59 4 59 -15 0 -12 40 3 40 6 0 3 6 -8 12 -36
20 -65 51 -65 71 0 13 5 17 15 13 27 -10 16 3 -26 31 -29 19 -39 32 -35 45 3
13 -11 34 -45 69 -51 52 -60 69 -33 69 20 0 -57 66 -89 76 -37 11 -49 25 -36
41 17 20 6 26 -74 38 -69 10 -72 12 -72 38 1 23 -4 27 -25 27 -15 0 -50 -7
-79 -16 -69 -20 -83 -15 -71 28 10 37 13 39 -48 -38 -21 -27 -22 -27 -12 -4
10 23 8 22 -17 -6 -52 -58 -103 -69 -103 -22 0 35 -16 10 -39 -62 -20 -60 -21
-62 -16 -20 5 34 3 42 -6 33 -6 -6 -14 -32 -16 -57 -3 -25 -9 -46 -13 -46 -4
0 -11 -11 -14 -25 -4 -14 -11 -25 -16 -25 -6 0 -10 -12 -11 -27 0 -25 -1 -26
-9 -8 -8 18 -9 17 -9 -7 -1 -16 -5 -28 -11 -28 -5 0 -10 -24 -10 -52 0 -59 -8
-98 -20 -98 -4 0 -11 10 -14 23 -7 21 -7 21 -16 2 -5 -11 -9 -50 -9 -87 -1
-76 -7 -98 -27 -98 -9 0 -14 12 -15 33 -1 26 -3 21 -13 -23 -7 -30 -20 -69
-29 -87 -19 -36 -59 -63 -65 -45 -2 8 -8 7 -19 -3 -15 -15 -38 -21 -30 -7 3 4
-9 7 -26 7 -24 0 -34 6 -45 27 -15 33 -2 68 26 68 10 0 18 8 19 19 2 26 33 72
43 66 8 -5 21 22 26 55 2 8 8 16 14 18 24 8 46 43 65 102 10 34 25 64 31 67
16 6 7 69 -13 101 -8 13 -13 25 -11 26 2 2 11 7 21 13 16 8 14 13 -22 38 -23
15 -41 31 -41 34 0 6 28 26 69 48 13 7 37 13 55 14 30 1 29 1 -9 10 -21 5 -45
7 -53 4 -7 -3 -23 0 -34 6 -14 8 -23 8 -31 0 -16 -16 -30 -13 -23 4 4 10 -7 6
-28 -10 -28 -21 -43 -26 -83 -23 l-48 3 53 18 c29 11 73 37 98 58 25 22 59 46
75 54 16 9 29 18 29 21 0 9 -59 -26 -92 -55 -34 -28 -97 -56 -107 -46 -16 16
71 83 109 85 9 0 31 14 50 31 32 28 32 28 4 9 -17 -12 -51 -26 -75 -31 -24 -6
-61 -21 -82 -35 -22 -14 -41 -23 -44 -20 -3 2 15 26 39 53 106 116 173 212
165 236 -4 12 -57 -72 -57 -91 0 -6 -8 -13 -18 -16 -9 -3 -28 -24 -42 -45 -13
-22 -34 -45 -47 -52 -13 -7 -23 -16 -23 -21 0 -17 -80 -82 -118 -95 -48 -17
-47 -17 -59 10 -10 22 -9 23 12 20 28 -6 93 27 123 62 13 15 30 44 37 65 8 21
21 49 29 62 19 30 48 110 41 116 -2 3 -14 -15 -25 -39z m-24 -66 c-10 -10 -19
5 -10 18 6 11 8 11 12 0 2 -7 1 -15 -2 -18z m-277 -287 c9 -11 6 -15 -16 -19
-16 -3 -34 0 -41 5 -9 8 -16 8 -24 0 -9 -9 -9 -12 1 -12 18 0 -58 -90 -78 -91
-12 0 -11 -2 4 -8 11 -5 24 -6 28 -4 5 3 4 -4 -2 -16 -14 -25 -56 -38 -75 -22
-10 8 -18 5 -36 -14 -13 -14 -29 -25 -36 -25 -6 0 -14 -7 -18 -15 -6 -16 -46
-21 -46 -6 0 13 25 37 61 58 17 10 39 32 50 50 11 17 36 41 55 52 35 21 36 14
5 -23 -14 -16 -14 -18 -1 -14 8 2 26 22 38 44 13 21 21 31 18 22 -3 -10 -1
-18 4 -18 10 0 14 14 11 37 -1 7 11 15 26 19 15 3 33 7 38 9 18 6 22 5 34 -9z
m896 4 c-3 -5 -12 -10 -18 -10 -7 0 -6 4 3 10 19 12 23 12 15 0z m-46 -23 c-2
-2 -29 -22 -59 -46 l-55 -43 50 46 c28 25 54 46 59 46 5 0 7 -1 5 -3z m-825
-39 c-33 -26 -54 -31 -54 -13 0 14 27 28 40 20 5 -3 11 -1 15 5 3 5 11 10 17
10 6 0 -2 -10 -18 -22z m286 -8 c0 -5 -3 -10 -7 -11 -11 -1 -42 -7 -83 -15
-19 -4 -38 -7 -42 -6 -5 1 -8 -2 -8 -6 0 -12 -61 -45 -68 -37 -4 4 -1 10 6 12
6 3 9 10 5 16 -4 7 2 5 12 -3 10 -8 16 -10 13 -5 -13 21 10 35 78 49 89 18 94
18 94 6z m60 1 c24 -7 24 -8 -25 -44 -27 -20 -55 -37 -61 -37 -6 0 -17 -7 -24
-15 -7 -8 -17 -15 -22 -15 -5 0 -2 7 7 16 13 13 13 19 3 33 -12 15 -11 15 6 1
18 -14 19 -13 14 7 -5 20 -1 23 41 29 25 5 38 10 29 12 -20 4 -25 23 -5 21 6
-1 23 -4 37 -8z m-398 -72 c-11 -19 -25 -51 -32 -73 -10 -32 -20 -42 -65 -61
-29 -13 -62 -37 -74 -54 -28 -40 -86 -74 -123 -73 -20 0 -41 13 -69 41 -21 23
-35 41 -31 41 4 0 23 -15 41 -34 18 -19 42 -36 52 -39 28 -8 96 31 119 68 14
23 37 40 75 55 51 20 55 25 71 73 17 53 43 101 51 94 2 -3 -5 -20 -15 -38z
m265 -15 c-9 -9 -28 6 -21 18 4 6 10 6 17 -1 6 -6 8 -13 4 -17z m-147 8 c0 -4
-10 -9 -22 -9 -18 -2 -20 0 -8 7 18 12 30 13 30 2z m-598 -44 c-7 -7 -12 -20
-12 -31 0 -10 -4 -16 -10 -12 -10 6 -2 36 14 47 17 12 21 9 8 -4z m728 8 c0
-3 -4 -8 -10 -11 -5 -3 -10 -1 -10 4 0 6 5 11 10 11 6 0 10 -2 10 -4z m177
-46 c1 -22 -2 -40 -7 -40 -16 0 -22 21 -11 34 6 7 9 21 5 30 -3 9 -2 16 3 16
5 0 9 -18 10 -40z m513 31 c0 -5 -7 -12 -16 -15 -24 -9 -28 -7 -14 9 14 17 30
20 30 6z m-550 -20 c0 -6 -4 -13 -10 -16 -5 -3 -10 1 -10 9 0 9 5 16 10 16 6
0 10 -4 10 -9z m0 -40 c0 -5 -7 -14 -15 -21 -13 -10 -15 -9 -15 9 0 12 6 21
15 21 8 0 15 -4 15 -9z m-580 -11 c0 -5 -10 -14 -21 -21 -17 -9 -24 -8 -38 7
-15 17 -15 17 3 4 17 -13 20 -13 30 3 12 19 26 23 26 7z m536 -16 c-4 -9 -1
-23 5 -30 9 -11 8 -18 -1 -29 -11 -13 -10 -14 4 -9 21 8 21 -14 -1 -39 -10
-11 -12 -17 -4 -12 9 5 7 -1 -4 -19 -21 -31 -29 -33 -22 -5 6 23 10 24 -43
-20 -3 -2 4 -1 14 3 19 6 19 6 3 -12 -9 -10 -14 -22 -10 -26 4 -4 0 -4 -10 0
-9 3 -14 11 -10 18 4 6 -1 5 -11 -3 -12 -10 -14 -16 -5 -21 8 -6 8 -13 0 -29
-7 -12 -15 -20 -19 -18 -4 2 -17 -7 -29 -19 -12 -13 -17 -24 -10 -27 15 -5 -1
-27 -19 -27 -8 0 -12 5 -9 10 11 18 -1 11 -21 -12 -13 -16 -14 -19 -2 -10 11
9 18 10 23 2 3 -6 12 -7 18 -4 9 5 9 3 0 -6 -10 -11 -9 -16 4 -25 12 -9 13
-16 4 -33 -7 -14 -8 -23 -1 -27 5 -3 10 -17 10 -31 0 -13 3 -24 8 -24 4 0 8
-11 8 -25 2 -26 -5 -29 -53 -19 -22 4 -33 14 -42 41 -10 26 -10 37 -2 43 8 4
5 15 -9 33 -21 26 -23 64 -4 60 5 -1 10 10 9 25 0 15 5 26 10 25 6 -1 10 11 9
25 -1 28 12 52 28 52 6 0 5 -7 -2 -15 -11 -13 -10 -14 4 -9 12 5 16 14 12 27
-8 30 12 51 30 32 8 -7 14 -19 14 -26 0 -7 3 -9 7 -6 3 4 0 19 -8 33 -12 23
-11 27 4 39 11 8 15 19 11 30 -6 15 -3 16 17 10 34 -11 34 -12 13 -37 l-19
-23 23 19 c15 13 20 26 16 40 -13 48 -15 61 -7 49 6 -9 16 -6 38 12 20 16 23
23 11 18 -19 -6 -19 -6 0 20 22 30 29 34 20 11z m55 -8 c-7 -8 -10 -26 -7 -40
7 -37 -10 -42 -18 -4 -4 23 -2 34 11 44 23 17 28 17 14 0z m-388 -8 c12 -6 17
-18 15 -36 -3 -25 -7 -27 -53 -29 -42 -1 -44 0 -15 5 34 7 58 42 28 42 -10 0
-9 3 2 10 10 6 5 9 -18 8 -18 -1 -35 2 -38 5 -10 9 59 5 79 -5z m-96 -13 c0
-8 -4 -12 -9 -9 -5 3 -6 10 -3 15 9 13 12 11 12 -6z m-197 -9 c0 -11 -19 -15
-25 -6 -3 5 1 10 9 10 9 0 16 -2 16 -4z m1630 -6 c0 -15 -26 -23 -41 -14 -9 5
-7 10 7 15 27 11 34 10 34 -1z m-1600 -10 c0 -5 -2 -10 -4 -10 -3 0 -8 5 -11
10 -3 6 -1 10 4 10 6 0 11 -4 11 -10z m-5 -20 c11 -5 16 -9 10 -10 -59 -8 -65
-8 -65 6 0 15 24 17 55 4z m75 -42 c0 -18 -2 -20 -9 -8 -6 8 -7 18 -5 22 9 14
14 9 14 -14z m874 14 c3 -5 -1 -9 -9 -9 -8 0 -12 4 -9 9 3 4 7 8 9 8 2 0 6 -4
9 -8z m-1034 -54 c0 -21 0 -21 -21 -2 l-22 19 6 -30 5 -30 -19 24 -20 25 28
11 c34 15 43 11 43 -17z m124 -19 c-24 -27 -82 -64 -111 -71 -13 -4 -23 -5
-23 -3 0 2 -3 12 -6 22 -6 15 -4 16 7 6 7 -7 19 -13 27 -13 12 0 12 2 1 17
-13 15 -12 15 9 4 18 -10 22 -9 22 4 0 9 5 13 10 10 6 -3 10 1 10 11 0 14 2
15 17 3 15 -12 16 -12 10 3 -4 12 -2 15 7 12 7 -3 16 3 20 12 4 9 9 14 13 10
3 -3 -2 -15 -13 -27z m-64 11 c0 -5 -4 -10 -9 -10 -6 0 -13 5 -16 10 -3 6 1
10 9 10 9 0 16 -4 16 -10z m947 -32 c-3 -8 -6 -5 -6 6 -1 11 2 17 5 13 3 -3 4
-12 1 -19z m-106 -111 c-8 -8 -11 -7 -11 4 0 20 13 34 18 19 3 -7 -1 -17 -7
-23z m939 22 c0 -11 -47 -12 -53 -1 -3 4 8 7 24 8 16 1 29 -3 29 -7z m23 -33
c4 -10 0 -12 -15 -8 -15 4 -17 7 -6 13 17 11 15 11 21 -5z m-50 -23 c-7 -2
-19 -2 -25 0 -7 3 -2 5 12 5 14 0 19 -2 13 -5z m-913 -33 c0 -15 -7 -20 -25
-20 -17 0 -23 -4 -19 -14 6 -17 -12 -31 -21 -16 -3 5 -2 10 3 10 6 0 8 8 5 19
-3 10 0 22 6 25 6 4 11 1 11 -6 0 -8 6 -7 17 5 22 21 23 21 23 -3z m-450 -47
c0 -5 -5 -15 -10 -23 -8 -12 -10 -11 -10 8 0 12 5 22 10 22 6 0 10 -3 10 -7z
m707 -15 c13 -12 23 -32 23 -45 0 -32 -45 -77 -68 -67 -36 15 -72 17 -72 3 0
-11 -2 -11 -10 1 -6 10 -10 11 -10 3 0 -7 -5 -13 -11 -13 -5 0 -7 6 -4 13 4 6
-1 3 -9 -7 -15 -18 -16 -18 -16 -2 0 30 53 95 95 116 50 25 53 25 82 -2z m713
-18 c0 -5 -5 -10 -11 -10 -5 0 -7 5 -4 10 3 6 8 10 11 10 2 0 4 -4 4 -10z
m-1280 -9 c0 -5 -9 -7 -20 -4 -11 3 -20 7 -20 9 0 2 9 4 20 4 11 0 20 -4 20
-9z m16 -24 c4 -4 -2 -7 -14 -7 -12 0 -22 4 -22 9 0 10 26 9 36 -2z m1184 3
c0 -5 -2 -10 -4 -10 -3 0 -8 5 -11 10 -3 6 -1 10 4 10 6 0 11 -4 11 -10z
m-1185 -30 c3 -5 -3 -10 -14 -10 -11 0 -23 5 -26 10 -3 6 3 10 14 10 11 0 23
-4 26 -10z m1141 -12 c4 -7 3 -8 -4 -4 -7 4 -12 2 -12 -4 0 -6 -5 -8 -11 -4
-8 4 -7 9 2 15 18 11 17 11 25 -3z m-1149 -14 c-3 -3 -12 -4 -19 -1 -8 3 -5 6
6 6 11 1 17 -2 13 -5z m373 -19 c0 -8 -4 -15 -10 -15 -5 0 -10 7 -10 15 0 8 5
15 10 15 6 0 10 -7 10 -15z m130 -14 c0 -4 -12 -8 -27 -9 -14 -1 -41 -11 -59
-21 -24 -15 -35 -16 -44 -8 -10 9 -11 9 -6 0 7 -14 -6 -18 -17 -6 -12 11 57
47 93 48 24 1 34 6 32 15 -3 11 0 11 12 0 9 -7 16 -15 16 -19z m82 -3 c-5 -5
-17 -10 -25 -12 -9 -1 -25 -10 -37 -21 -11 -10 -20 -14 -20 -10 0 5 -10 -5
-23 -22 -21 -29 -24 -30 -47 -16 l-25 14 30 -5 c28 -4 28 -3 10 10 -18 14 -18
14 2 14 11 0 33 11 48 24 16 14 32 23 37 20 4 -3 8 0 8 6 0 6 5 8 10 5 6 -3
10 1 10 11 0 14 3 14 15 4 10 -8 12 -17 7 -22z m528 23 c0 -12 -20 -25 -27
-18 -7 7 6 27 18 27 5 0 9 -4 9 -9z m-470 -10 c0 -10 -39 -41 -52 -41 -9 0 34
47 45 49 4 1 7 -3 7 -8z m390 -12 c0 -6 -4 -7 -10 -4 -5 3 -10 11 -10 16 0 6
5 7 10 4 6 -3 10 -11 10 -16z m-1680 -4 c0 -8 -9 -10 -25 -7 -14 2 -25 8 -25
12 0 4 11 8 25 8 14 0 25 -6 25 -13z m38 -3 c2 -7 -2 -10 -12 -6 -9 3 -16 11
-16 16 0 13 23 5 28 -10z m922 4 c0 -2 -7 -7 -16 -10 -8 -3 -12 -2 -9 4 6 10
25 14 25 6z m-962 -34 c2 -7 -7 -16 -20 -21 -13 -5 -29 -16 -36 -24 -11 -13
-16 -13 -42 -1 -42 21 -29 44 23 42 25 -1 42 3 45 11 5 14 24 10 30 -7z m167
-72 c-3 -5 -1 -10 5 -10 6 0 8 -4 5 -10 -4 -6 -11 -5 -19 3 -15 13 -12 27 5
27 6 0 7 -4 4 -10z m25 -56 c0 -8 -5 -12 -10 -9 -6 4 -8 11 -5 16 9 14 15 11
15 -7z"/>
<path d="M1439 923 c-8 -9 -9 -14 -2 -10 6 4 14 1 16 -5 3 -7 6 -3 6 10 1 26
-2 27 -20 5z"/>
<path d="M1265 650 c-3 -6 -2 -10 3 -10 5 0 14 -10 20 -22 10 -22 10 -22 9 -2
-1 25 -23 48 -32 34z"/>
<path d="M1275 560 c3 -5 11 -10 16 -10 6 0 7 5 4 10 -3 6 -11 10 -16 10 -6 0
-7 -4 -4 -10z"/>
<path d="M1280 509 c0 -5 5 -7 10 -4 6 3 10 8 10 11 0 2 -4 4 -10 4 -5 0 -10
-5 -10 -11z"/>
<path d="M1899 413 c-13 -16 -12 -17 4 -4 16 13 21 21 13 21 -2 0 -10 -8 -17
-17z"/>
<path d="M922 1310 c0 -14 2 -19 5 -12 2 6 2 18 0 25 -3 6 -5 1 -5 -13z"/>
<path d="M618 1303 c6 -2 18 -2 25 0 6 3 1 5 -13 5 -14 0 -19 -2 -12 -5z"/>
<path d="M896 1275 c8 -37 14 -45 14 -19 0 10 -5 26 -10 34 -8 11 -9 7 -4 -15z"/>
<path d="M2175 1280 c-3 -5 -1 -10 4 -10 6 0 11 5 11 10 0 6 -2 10 -4 10 -3 0
-8 -4 -11 -10z"/>
<path d="M759 1245 c9 -18 18 -31 20 -29 8 7 -10 52 -22 57 -10 4 -10 -2 2
-28z"/>
<path d="M2202 1174 c10 -10 20 -16 22 -13 3 3 -5 11 -17 18 -21 13 -21 12 -5
-5z"/>
<path d="M2055 1150 c-3 -5 -1 -10 4 -10 6 0 11 5 11 10 0 6 -2 10 -4 10 -3 0
-8 -4 -11 -10z"/>
<path d="M1956 1104 c-8 -21 -8 -59 0 -51 7 6 14 67 9 67 -2 0 -6 -7 -9 -16z"/>
<path d="M2170 1091 c-14 -27 -13 -31 10 -31 15 0 20 7 20 25 0 30 -15 33 -30
6z"/>
<path d="M1910 1039 c0 -5 5 -7 10 -4 6 3 10 8 10 11 0 2 -4 4 -10 4 -5 0 -10
-5 -10 -11z"/>
<path d="M1998 1014 c-3 -3 1 -19 9 -35 20 -41 1 -64 -19 -24 -12 22 -16 24
-26 12 -9 -10 -9 -21 0 -45 7 -18 15 -32 19 -32 3 0 20 18 37 39 27 34 30 44
22 65 -9 24 -29 34 -42 20z"/>
<path d="M963 809 c-38 -11 -40 -15 -15 -21 10 -3 29 3 41 13 25 21 22 22 -26
8z"/>
<path d="M868 733 c7 -3 16 -2 19 1 4 3 -2 6 -13 5 -11 0 -14 -3 -6 -6z"/>
<path d="M1923 683 c-18 -6 -16 -23 1 -23 8 0 17 -6 19 -12 4 -10 6 -10 6 0 1
8 6 10 14 6 6 -4 3 2 -7 14 -11 12 -20 22 -20 21 -1 0 -7 -3 -13 -6z"/>
<path d="M480 455 c-6 -8 -10 -19 -8 -26 2 -6 9 0 16 15 13 29 10 33 -8 11z"/>
<path d="M1157 451 c-3 -14 -1 -18 9 -14 16 6 18 19 5 27 -5 3 -11 -3 -14 -13z"/>
<path d="M489 353 c-20 -27 -21 -27 -14 -4 5 16 4 21 -4 17 -12 -8 -14 -45 -3
-62 4 -6 16 7 28 33 12 24 20 43 18 43 -1 0 -12 -12 -25 -27z"/>
<path d="M3 60 c0 -36 2 -50 4 -32 2 17 2 47 0 65 -2 17 -4 3 -4 -33z"/>
<path d="M912 65 c0 -16 2 -22 5 -12 2 9 2 23 0 30 -3 6 -5 -1 -5 -18z"/>
<path d="M1700 70 c-12 -7 -12 -10 -1 -10 8 0 11 -6 7 -16 -3 -8 -2 -12 3 -9
7 4 13 47 6 45 0 0 -7 -5 -15 -10z"/>
<path d="M880 61 c0 -6 4 -13 10 -16 6 -3 7 1 4 9 -7 18 -14 21 -14 7z"/>
<path d="M951 58 c-1 -21 15 -32 25 -17 4 7 3 9 -4 5 -6 -3 -13 2 -15 11 -4
16 -5 16 -6 1z"/>
<path d="M1193 55 c0 -6 6 -12 12 -12 6 0 12 6 12 12 0 6 -6 12 -12 12 -6 0
-12 -6 -12 -12z"/>
<path d="M1371 54 c0 -11 3 -14 6 -6 3 7 2 16 -1 19 -3 4 -6 -2 -5 -13z"/>
<path d="M1391 54 c0 -11 3 -14 6 -6 3 7 2 16 -1 19 -3 4 -6 -2 -5 -13z"/>
<path d="M1791 54 c0 -11 3 -14 6 -6 3 7 2 16 -1 19 -3 4 -6 -2 -5 -13z"/>
<path d="M1040 51 c0 -6 5 -13 12 -17 6 -4 8 -3 4 4 -3 5 0 13 6 15 8 3 6 6
-4 6 -10 1 -18 -3 -18 -8z"/>
<path d="M1240 49 c0 -5 5 -7 10 -4 6 3 10 8 10 11 0 2 -4 4 -10 4 -5 0 -10
-5 -10 -11z"/>
<path d="M1330 51 c0 -6 4 -13 10 -16 6 -3 7 1 4 9 -7 18 -14 21 -14 7z"/>
<path d="M1549 43 c-13 -16 -12 -17 4 -4 16 13 21 21 13 21 -2 0 -10 -8 -17
-17z"/>
<path d="M1618 33 c7 -3 16 -2 19 1 4 3 -2 6 -13 5 -11 0 -14 -3 -6 -6z"/>
</g>
</svg>
