<?xml version="1.0" standalone="no"?>
<!DOCTYPE svg PUBLIC "-//W3C//DTD SVG 20010904//EN"
 "http://www.w3.org/TR/2001/REC-SVG-20010904/DTD/svg10.dtd">
<svg version="1.0" xmlns="http://www.w3.org/2000/svg"
 width="225.000000pt" height="225.000000pt" viewBox="0 0 225.000000 225.000000"
 preserveAspectRatio="xMidYMid meet">

<g transform="translate(0.000000,225.000000) scale(0.100000,-0.100000)"
fill="#000000" stroke="none">
<path d="M955 2233 c-16 -2 -86 -17 -155 -33 -232 -53 -305 -63 -413 -56 l-99
6 7 -66 c19 -183 83 -306 196 -381 34 -23 37 -28 42 -89 3 -46 14 -84 38 -132
l34 -67 8 120 c4 65 9 120 10 121 1 2 32 -4 69 -11 194 -41 440 -37 627 11 94
24 249 90 284 121 9 9 20 13 23 10 10 -10 23 -152 23 -254 1 -51 5 -93 10 -93
15 0 50 82 62 146 13 70 6 295 -11 339 -16 42 -49 75 -76 75 -15 0 -30 12 -43
34 -54 86 -178 164 -306 191 -65 14 -255 18 -330 8z"/>
<path d="M876 1434 c-20 -19 -21 -74 -2 -99 17 -23 43 -14 56 20 21 54 -20
113 -54 79z"/>
<path d="M1331 1412 c-21 -51 19 -111 54 -82 15 13 20 65 9 94 -10 27 -50 19
-63 -12z"/>
<path d="M800 830 c-44 -63 -105 -93 -221 -109 -48 -6 -128 -22 -178 -35 -111
-29 -246 -90 -235 -107 5 -8 3 -9 -5 -4 -32 19 -121 -126 -108 -175 3 -11 1
-18 -4 -14 -5 3 -10 -1 -10 -8 -1 -7 -3 -22 -5 -33 -9 -46 -33 -273 -34 -307
l0 -38 1125 0 1125 0 0 53 c-1 131 -35 351 -51 326 -6 -9 -7 -1 -2 20 5 27 3
32 -7 26 -8 -5 -11 -4 -7 2 10 16 -22 85 -35 77 -7 -5 -9 -2 -6 8 10 24 -50
87 -106 112 -97 44 -211 75 -329 91 -135 18 -213 47 -242 91 -45 70 -42 69
-140 22 -79 -37 -98 -42 -177 -46 -81 -4 -95 -2 -171 28 -45 18 -94 41 -109
51 -14 11 -28 19 -30 19 -1 0 -19 -23 -38 -50z m599 -113 c-2 -1 -13 -9 -24
-17 -19 -14 -19 -14 -6 3 7 9 18 17 24 17 6 0 8 -1 6 -3z m26 -45 c-3 -3 -11
0 -18 7 -9 10 -8 11 6 5 10 -3 15 -9 12 -12z m282 -8 c-3 -3 -12 -4 -19 -1 -8
3 -5 6 6 6 11 1 17 -2 13 -5z m-500 -86 c-3 -8 -6 -5 -6 6 -1 11 2 17 5 13 3
-3 4 -12 1 -19z m-149 -29 c-3 -8 -7 -3 -11 10 -4 17 -3 21 5 13 5 -5 8 -16 6
-23z m-917 -22 c-10 -9 -11 -8 -5 6 3 10 9 15 12 12 3 -3 0 -11 -7 -18z m2079
-245 c0 -15 -2 -15 -10 -2 -13 20 -13 33 0 25 6 -3 10 -14 10 -23z"/>
</g>
</svg>
